<mxfile host="app.diagrams.net" modified="2023-08-25T01:13:11.670Z" agent="Mozilla/5.0 (Windows NT 10.0; Win64; x64) AppleWebKit/537.36 (KHTML, like Gecko) Chrome/116.0.0.0 Safari/537.36 Agency/98.8.6047.48" etag="-efmpPvvmUng_Uay61re" version="21.6.9" type="device">
  <diagram name="Página-1" id="QRLzlPFtQ-FI0et3Nkms">
    <mxGraphModel dx="1877" dy="1711" grid="1" gridSize="10" guides="1" tooltips="1" connect="1" arrows="1" fold="1" page="1" pageScale="1" pageWidth="827" pageHeight="1169" math="0" shadow="0">
      <root>
        <mxCell id="0" />
        <mxCell id="1" parent="0" />
        <mxCell id="lH8Gh1tdTDuXgLSZiSAE-10" value="" style="edgeStyle=orthogonalEdgeStyle;rounded=0;orthogonalLoop=1;jettySize=auto;html=1;endArrow=none;endFill=0;" edge="1" parent="1" source="lH8Gh1tdTDuXgLSZiSAE-5" target="lH8Gh1tdTDuXgLSZiSAE-8">
          <mxGeometry relative="1" as="geometry" />
        </mxCell>
        <mxCell id="lH8Gh1tdTDuXgLSZiSAE-5" value="distribuidor" style="whiteSpace=wrap;html=1;align=center;" vertex="1" parent="1">
          <mxGeometry x="70" y="-465" width="100" height="40" as="geometry" />
        </mxCell>
        <mxCell id="lH8Gh1tdTDuXgLSZiSAE-8" value="Distribui" style="shape=associativeEntity;whiteSpace=wrap;html=1;align=center;" vertex="1" parent="1">
          <mxGeometry x="50" y="-335" width="140" height="60" as="geometry" />
        </mxCell>
        <mxCell id="lH8Gh1tdTDuXgLSZiSAE-14" style="edgeStyle=orthogonalEdgeStyle;rounded=0;orthogonalLoop=1;jettySize=auto;html=1;exitX=0.5;exitY=0;exitDx=0;exitDy=0;entryX=0.174;entryY=1.023;entryDx=0;entryDy=0;entryPerimeter=0;endArrow=none;endFill=0;" edge="1" parent="1" source="lH8Gh1tdTDuXgLSZiSAE-12" target="lH8Gh1tdTDuXgLSZiSAE-8">
          <mxGeometry relative="1" as="geometry" />
        </mxCell>
        <mxCell id="lH8Gh1tdTDuXgLSZiSAE-12" value="produto" style="ellipse;whiteSpace=wrap;html=1;align=center;" vertex="1" parent="1">
          <mxGeometry y="-215" width="100" height="40" as="geometry" />
        </mxCell>
        <mxCell id="lH8Gh1tdTDuXgLSZiSAE-15" style="edgeStyle=orthogonalEdgeStyle;rounded=0;orthogonalLoop=1;jettySize=auto;html=1;exitX=0.5;exitY=0;exitDx=0;exitDy=0;entryX=0.75;entryY=1;entryDx=0;entryDy=0;endArrow=none;endFill=0;" edge="1" parent="1" source="lH8Gh1tdTDuXgLSZiSAE-13" target="lH8Gh1tdTDuXgLSZiSAE-8">
          <mxGeometry relative="1" as="geometry" />
        </mxCell>
        <mxCell id="lH8Gh1tdTDuXgLSZiSAE-13" value="cidade" style="ellipse;whiteSpace=wrap;html=1;align=center;" vertex="1" parent="1">
          <mxGeometry x="130" y="-215" width="100" height="40" as="geometry" />
        </mxCell>
        <mxCell id="lH8Gh1tdTDuXgLSZiSAE-17" style="edgeStyle=orthogonalEdgeStyle;rounded=0;orthogonalLoop=1;jettySize=auto;html=1;entryX=1;entryY=0.5;entryDx=0;entryDy=0;endArrow=none;endFill=0;" edge="1" parent="1" source="lH8Gh1tdTDuXgLSZiSAE-16" target="lH8Gh1tdTDuXgLSZiSAE-8">
          <mxGeometry relative="1" as="geometry" />
        </mxCell>
        <mxCell id="lH8Gh1tdTDuXgLSZiSAE-16" value="id" style="ellipse;whiteSpace=wrap;html=1;align=center;fontStyle=4;" vertex="1" parent="1">
          <mxGeometry x="230" y="-325" width="100" height="40" as="geometry" />
        </mxCell>
        <mxCell id="lH8Gh1tdTDuXgLSZiSAE-18" value="1" style="text;html=1;align=center;verticalAlign=middle;resizable=0;points=[];autosize=1;strokeColor=none;fillColor=none;" vertex="1" parent="1">
          <mxGeometry x="115" y="-427" width="30" height="30" as="geometry" />
        </mxCell>
        <mxCell id="lH8Gh1tdTDuXgLSZiSAE-19" value="N" style="text;html=1;align=center;verticalAlign=middle;resizable=0;points=[];autosize=1;strokeColor=none;fillColor=none;" vertex="1" parent="1">
          <mxGeometry x="115" y="-367" width="30" height="30" as="geometry" />
        </mxCell>
        <mxCell id="lH8Gh1tdTDuXgLSZiSAE-24" style="edgeStyle=orthogonalEdgeStyle;rounded=0;orthogonalLoop=1;jettySize=auto;html=1;entryX=0;entryY=0.5;entryDx=0;entryDy=0;endArrow=none;endFill=0;" edge="1" parent="1" source="lH8Gh1tdTDuXgLSZiSAE-21" target="lH8Gh1tdTDuXgLSZiSAE-22">
          <mxGeometry relative="1" as="geometry" />
        </mxCell>
        <mxCell id="lH8Gh1tdTDuXgLSZiSAE-21" value="distribuidor" style="whiteSpace=wrap;html=1;align=center;" vertex="1" parent="1">
          <mxGeometry x="-370" y="-422" width="100" height="40" as="geometry" />
        </mxCell>
        <mxCell id="lH8Gh1tdTDuXgLSZiSAE-22" value="distribuicao" style="shape=rhombus;perimeter=rhombusPerimeter;whiteSpace=wrap;html=1;align=center;" vertex="1" parent="1">
          <mxGeometry x="-270" y="-350" width="120" height="60" as="geometry" />
        </mxCell>
        <mxCell id="lH8Gh1tdTDuXgLSZiSAE-28" style="edgeStyle=orthogonalEdgeStyle;rounded=0;orthogonalLoop=1;jettySize=auto;html=1;entryX=0.5;entryY=1;entryDx=0;entryDy=0;endArrow=none;endFill=0;" edge="1" parent="1" source="lH8Gh1tdTDuXgLSZiSAE-23" target="lH8Gh1tdTDuXgLSZiSAE-22">
          <mxGeometry relative="1" as="geometry" />
        </mxCell>
        <mxCell id="lH8Gh1tdTDuXgLSZiSAE-23" value="produto" style="whiteSpace=wrap;html=1;align=center;" vertex="1" parent="1">
          <mxGeometry x="-260" y="-210" width="100" height="40" as="geometry" />
        </mxCell>
        <mxCell id="lH8Gh1tdTDuXgLSZiSAE-27" style="edgeStyle=orthogonalEdgeStyle;rounded=0;orthogonalLoop=1;jettySize=auto;html=1;entryX=1;entryY=0.5;entryDx=0;entryDy=0;endArrow=none;endFill=0;" edge="1" parent="1" source="lH8Gh1tdTDuXgLSZiSAE-26" target="lH8Gh1tdTDuXgLSZiSAE-22">
          <mxGeometry relative="1" as="geometry" />
        </mxCell>
        <mxCell id="lH8Gh1tdTDuXgLSZiSAE-26" value="cidade" style="whiteSpace=wrap;html=1;align=center;" vertex="1" parent="1">
          <mxGeometry x="-150" y="-420" width="100" height="40" as="geometry" />
        </mxCell>
        <mxCell id="lH8Gh1tdTDuXgLSZiSAE-29" value="1" style="text;html=1;align=center;verticalAlign=middle;resizable=0;points=[];autosize=1;strokeColor=none;fillColor=none;" vertex="1" parent="1">
          <mxGeometry x="-325" y="-382" width="30" height="30" as="geometry" />
        </mxCell>
        <mxCell id="lH8Gh1tdTDuXgLSZiSAE-30" value="N" style="text;html=1;align=center;verticalAlign=middle;resizable=0;points=[];autosize=1;strokeColor=none;fillColor=none;" vertex="1" parent="1">
          <mxGeometry x="-235" y="-292" width="30" height="30" as="geometry" />
        </mxCell>
        <mxCell id="lH8Gh1tdTDuXgLSZiSAE-31" value="N" style="text;html=1;align=center;verticalAlign=middle;resizable=0;points=[];autosize=1;strokeColor=none;fillColor=none;" vertex="1" parent="1">
          <mxGeometry x="-165" y="-352" width="30" height="30" as="geometry" />
        </mxCell>
        <mxCell id="lH8Gh1tdTDuXgLSZiSAE-33" value="Ternário" style="text;html=1;align=center;verticalAlign=middle;resizable=0;points=[];autosize=1;strokeColor=none;fillColor=none;" vertex="1" parent="1">
          <mxGeometry x="-245" y="-470" width="70" height="30" as="geometry" />
        </mxCell>
        <mxCell id="lH8Gh1tdTDuXgLSZiSAE-34" value="Binário" style="text;html=1;align=center;verticalAlign=middle;resizable=0;points=[];autosize=1;strokeColor=none;fillColor=none;" vertex="1" parent="1">
          <mxGeometry x="240" y="-470" width="60" height="30" as="geometry" />
        </mxCell>
      </root>
    </mxGraphModel>
  </diagram>
</mxfile>
